<svg width="30" height="30" viewBox="0 0 30 30" fill="none" xmlns="http://www.w3.org/2000/svg">
<path d="M13.625 2.62497C7.87501 3.24997 3.25001 7.87497 2.62501 13.5C2.00001 19.375 5.37501 24.625 10.5 26.625C10.875 26.75 11.25 26.5 11.25 26V24C11.25 24 10.75 24.125 10.125 24.125C8.37501 24.125 7.62501 22.625 7.50001 21.75C7.37501 21.25 7.12501 20.875 6.75001 20.5C6.37501 20.375 6.25001 20.375 6.25001 20.25C6.25001 20 6.62501 20 6.75001 20C7.50001 20 8.12501 20.875 8.37501 21.25C9.00001 22.25 9.75001 22.5 10.125 22.5C10.625 22.5 11 22.375 11.25 22.25C11.375 21.375 11.75 20.5 12.5 20C9.62501 19.375 7.50001 17.75 7.50001 15C7.50001 13.625 8.12501 12.25 9.00001 11.25C8.87501 11 8.75001 10.375 8.75001 9.49997C8.75001 8.99997 8.75001 8.24997 9.12501 7.49997C9.12501 7.49997 10.875 7.49997 12.625 9.12497C13.25 8.87497 14.125 8.74997 15 8.74997C15.875 8.74997 16.75 8.87497 17.5 9.12497C19.125 7.49997 21 7.49997 21 7.49997C21.25 8.24997 21.25 8.99997 21.25 9.49997C21.25 10.5 21.125 11 21 11.25C21.875 12.25 22.5 13.5 22.5 15C22.5 17.75 20.375 19.375 17.5 20C18.25 20.625 18.75 21.75 18.75 22.875V26.125C18.75 26.5 19.125 26.875 19.625 26.75C24.25 24.875 27.5 20.375 27.5 15.125C27.5 7.62497 21.125 1.74997 13.625 2.62497Z" fill="#E4A30B"/>
</svg>
